<svg xmlns="http://www.w3.org/2000/svg" viewBox="0 0 280 325.04"><defs><style>.cls-1{fill:#fff;}.cls-2{fill:#d1d1d1;}.cls-3{fill:#2574a5;}.cls-4{fill:#23567c;}.cls-5{fill:#113f5b;}</style></defs><title>EF-Contour</title><g id="Lag_2" data-name="Lag 2"><g id="Kontur"><polygon id="Kontur-2" data-name="Kontur" class="cls-1" points="0 300.35 0 25.22 140 0 280 25.22 280 300.35 140 325.04 0 300.35"/></g><g id="Logo"><polygon class="cls-1" points="140 309.8 15 287.76 15 37.76 140 59.8 140 309.8"/><polygon class="cls-2" points="140 309.8 265 287.76 265 37.76 140 59.8 140 309.8"/><polygon class="cls-3" points="140 109.8 140 59.8 15 37.76 15 287.76 140 309.8 140 259.8 77.5 248.78 77.5 198.78 140 209.8 140 159.8 77.5 148.78 77.5 98.78 140 109.8"/><polygon class="cls-4" points="202.5 198.78 140 209.8 140 159.8 202.5 148.78 202.5 98.78 140 109.8 140 59.8 265 37.76 265 287.76 202.5 298.78 202.5 198.78"/><polygon class="cls-5" points="15 37.76 140 59.8 265 37.76 140 15.24 15 37.76"/></g></g></svg>