<svg xmlns="http://www.w3.org/2000/svg" viewBox="0 0 250 294.56"><defs><style>.cls-1{fill:#fff;}.cls-2{fill:#d1d1d1;}.cls-3{fill:#2574a5;}.cls-4{fill:#23567c;}.cls-5{fill:#113f5b;}</style></defs><title>EF-NoContour</title><g id="Lag_2" data-name="Lag 2"><g id="Logo"><polygon class="cls-1" points="125 294.56 0 272.52 0 22.52 125 44.56 125 294.56"/><polygon class="cls-2" points="125 294.56 250 272.52 250 22.52 125 44.56 125 294.56"/><polygon class="cls-3" points="125 94.56 125 44.56 0 22.52 0 272.52 125 294.56 125 244.56 62.5 233.54 62.5 183.54 125 194.56 125 144.56 62.5 133.54 62.5 83.54 125 94.56"/><polygon class="cls-4" points="187.5 183.54 125 194.56 125 144.56 187.5 133.54 187.5 83.54 125 94.56 125 44.56 250 22.52 250 272.52 187.5 283.54 187.5 183.54"/><polygon class="cls-5" points="0 22.52 125 44.56 250 22.52 125 0 0 22.52"/></g></g></svg>