<svg xmlns="http://www.w3.org/2000/svg" viewBox="0 0 256 256"><defs><style>.cls-1{fill:#fff;}.cls-2{fill:#d1d1d1;}.cls-3{fill:#113f5b;}.cls-4{fill:#2574a5;}.cls-5{fill:#23567c;}</style></defs><title>Contour</title><g id="Lag_2" data-name="Lag 2"><g id="Lag_4" data-name="Lag 4"><polygon class="cls-1" points="128 0 0 16.48 0 240.23 128 256 256 240.23 256 16.48 128 0"/><polygon class="cls-1" points="14.48 29.2 128 43.19 128 241.42 14.48 227.44 14.48 29.2"/><polygon class="cls-2" points="241.52 29.2 128 43.19 128 241.42 241.52 227.44 241.52 29.2"/><polygon class="cls-3" points="14.48 29.2 14.48 33.25 128 44.75 241.52 32.28 241.52 29.2 128 14.59 14.48 29.2"/><polygon class="cls-4" points="128 82.83 128 43.19 14.48 29.2 14.48 227.44 128 241.42 128 201.78 71.24 194.78 71.24 155.14 128 162.13 128 122.48 71.24 115.49 71.24 75.84 128 82.83"/><polygon class="cls-5" points="128 43.19 128 82.83 184.76 75.84 184.76 115.49 128 122.48 128 162.13 184.76 155.14 184.76 194.78 184.76 234.43 241.52 227.44 241.52 29.2 128 43.19"/></g></g></svg>