<svg xmlns="http://www.w3.org/2000/svg" viewBox="0 0 256 256"><defs><style>.cls-1{fill:#fff;}.cls-2{fill:#d1d1d1;}.cls-3{fill:#113f5b;}.cls-4{fill:#2574a5;}.cls-5{fill:#23567c;}</style></defs><title>NoContour</title><g id="Lag_2" data-name="Lag 2"><g id="Lag_4" data-name="Lag 4"><polygon class="cls-1" points="0 16.5 128 32.28 128 256 0 240.22 0 16.5"/><polygon class="cls-2" points="256 16.5 128 32.28 128 256 256 240.22 256 16.5"/><polygon class="cls-3" points="0 16.5 0 17.54 128 34.75 256 17 256 16.5 128 0 0 16.5"/><polygon class="cls-4" points="128 77.02 128 32.28 0 16.5 0 240.22 128 256 128 211.25 64 203.37 64 158.62 128 166.51 128 121.77 64 113.88 64 69.13 128 77.02"/><polygon class="cls-5" points="128 32.28 128 77.02 192 69.13 192 113.88 128 121.77 128 166.51 192 158.62 192 203.37 192 248.11 256 240.22 256 16.5 128 32.28"/></g></g></svg>